<svg aria-hidden="true" style="position: absolute; width: 0; height: 0; overflow: hidden;" version="1.1" xmlns="http://www.w3.org/2000/svg" xmlns:xlink="http://www.w3.org/1999/xlink">
<defs>
<symbol id="logo" viewBox="0 0 143 32">
<path fill="none" stroke="#4d4d4d" style="stroke: var(--color1, #4d4d4d)" stroke-linejoin="miter" stroke-linecap="butt" stroke-miterlimit="4" stroke-width="0.7273" d="M20.446 5.185l3.893-4.458"></path>
<path fill="none" stroke="#4d4d4d" style="stroke: var(--color1, #4d4d4d)" stroke-linejoin="miter" stroke-linecap="butt" stroke-miterlimit="4" stroke-width="0.7273" d="M23.979 0.976l9.264 9.264"></path>
<path fill="none" stroke="#4d4d4d" style="stroke: var(--color1, #4d4d4d)" stroke-linejoin="miter" stroke-linecap="butt" stroke-miterlimit="4" stroke-width="0.7273" d="M7.73 9.652l8.246-9.153"></path>
<path fill="none" stroke="#4d4d4d" style="stroke: var(--color1, #4d4d4d)" stroke-linejoin="miter" stroke-linecap="butt" stroke-miterlimit="4" stroke-width="0.7273" d="M15.594 0.73l9.264 9.264"></path>
<path fill="#333" style="fill: var(--color2, #333)" d="M14.551 4.921h1.048v1.048h-1.048v-1.048z"></path>
<path fill="#333" style="fill: var(--color2, #333)" d="M22.936 4.921h1.048v1.048h-1.048v-1.048z"></path>
<path fill="#333" style="fill: var(--color2, #333)" d="M14.551 6.23h1.048v1.048h-1.048v-1.048z"></path>
<path fill="#333" style="fill: var(--color2, #333)" d="M22.936 6.23h1.048v1.048h-1.048v-1.048z"></path>
<path fill="#333" style="fill: var(--color2, #333)" d="M15.861 4.921h1.048v1.048h-1.048v-1.048z"></path>
<path fill="#333" style="fill: var(--color2, #333)" d="M24.246 4.921h1.048v1.048h-1.048v-1.048z"></path>
<path fill="#333" style="fill: var(--color2, #333)" d="M15.861 6.23h1.048v1.048h-1.048v-1.048z"></path>
<path fill="#333" style="fill: var(--color2, #333)" d="M24.246 6.23h1.048v1.048h-1.048v-1.048z"></path>
<path fill="#4d4d4d" style="fill: var(--color1, #4d4d4d)" d="M45.811 25.578c0.341 0 0.64 0.067 0.896 0.2 0.261 0.128 0.464 0.325 0.608 0.592 0.149 0.267 0.224 0.603 0.224 1.008v2.44h-0.568v-2.384c0-0.443-0.112-0.776-0.336-1-0.219-0.229-0.528-0.344-0.928-0.344-0.299 0-0.56 0.061-0.784 0.184-0.219 0.117-0.389 0.291-0.512 0.52-0.117 0.224-0.176 0.496-0.176 0.816v2.208h-0.568v-4.2h0.544v1.152l-0.088-0.216c0.133-0.304 0.347-0.541 0.64-0.712 0.293-0.176 0.643-0.264 1.048-0.264zM52.105 29.818v-0.928l-0.024-0.152v-1.552c0-0.357-0.101-0.632-0.304-0.824-0.197-0.192-0.493-0.288-0.888-0.288-0.272 0-0.531 0.045-0.776 0.136s-0.453 0.211-0.624 0.36l-0.256-0.424c0.213-0.181 0.469-0.32 0.768-0.416 0.299-0.101 0.613-0.152 0.944-0.152 0.544 0 0.963 0.136 1.256 0.408 0.299 0.267 0.448 0.675 0.448 1.224v2.608h-0.544zM50.657 29.858c-0.315 0-0.589-0.051-0.824-0.152-0.229-0.107-0.405-0.251-0.528-0.432-0.123-0.187-0.184-0.4-0.184-0.64 0-0.219 0.051-0.416 0.152-0.592 0.107-0.181 0.277-0.325 0.512-0.432 0.24-0.112 0.56-0.168 0.96-0.168h1.448v0.424h-1.432c-0.405 0-0.688 0.072-0.848 0.216-0.155 0.144-0.232 0.323-0.232 0.536 0 0.24 0.093 0.432 0.28 0.576s0.448 0.216 0.784 0.216c0.32 0 0.595-0.072 0.824-0.216 0.235-0.149 0.405-0.363 0.512-0.64l0.128 0.392c-0.107 0.277-0.293 0.499-0.56 0.664-0.261 0.165-0.592 0.248-0.992 0.248zM56.264 29.858c-0.4 0-0.76-0.091-1.080-0.272-0.315-0.181-0.563-0.432-0.744-0.752-0.181-0.325-0.272-0.699-0.272-1.12 0-0.427 0.091-0.8 0.272-1.12s0.429-0.568 0.744-0.744c0.32-0.181 0.68-0.272 1.080-0.272 0.368 0 0.696 0.083 0.984 0.248 0.293 0.165 0.525 0.408 0.696 0.728 0.176 0.315 0.264 0.701 0.264 1.16 0 0.453-0.085 0.84-0.256 1.16s-0.403 0.565-0.696 0.736c-0.288 0.165-0.619 0.248-0.992 0.248zM56.304 29.354c0.299 0 0.565-0.067 0.8-0.2 0.24-0.139 0.427-0.331 0.56-0.576 0.139-0.251 0.208-0.539 0.208-0.864 0-0.331-0.069-0.619-0.208-0.864-0.133-0.245-0.32-0.435-0.56-0.568-0.235-0.139-0.501-0.208-0.8-0.208-0.293 0-0.557 0.069-0.792 0.208-0.235 0.133-0.421 0.323-0.56 0.568s-0.208 0.533-0.208 0.864c0 0.325 0.069 0.613 0.208 0.864 0.139 0.245 0.325 0.437 0.56 0.576 0.235 0.133 0.499 0.2 0.792 0.2zM57.888 29.818v-1.264l0.056-0.848-0.080-0.848v-2.976h0.568v5.936h-0.544zM63.628 29.866c-0.315 0-0.611-0.069-0.888-0.208-0.272-0.139-0.491-0.336-0.656-0.592l0.344-0.4c0.155 0.224 0.333 0.395 0.536 0.512s0.427 0.176 0.672 0.176c0.693 0 1.040-0.411 1.040-1.232v-3.392h-2.048v-0.512h2.632v3.88c0 0.592-0.139 1.035-0.416 1.328-0.272 0.293-0.677 0.44-1.216 0.44zM69.1 29.858c-0.437 0-0.821-0.091-1.152-0.272-0.331-0.187-0.589-0.44-0.776-0.76-0.187-0.325-0.28-0.696-0.28-1.112s0.088-0.784 0.264-1.104c0.181-0.32 0.427-0.571 0.736-0.752 0.315-0.187 0.667-0.28 1.056-0.28 0.395 0 0.744 0.091 1.048 0.272 0.309 0.176 0.552 0.427 0.728 0.752 0.176 0.32 0.264 0.691 0.264 1.112 0 0.027-0.003 0.056-0.008 0.088 0 0.027 0 0.056 0 0.088h-3.656v-0.424h3.352l-0.224 0.168c0-0.304-0.067-0.573-0.2-0.808-0.128-0.24-0.304-0.427-0.528-0.56s-0.483-0.2-0.776-0.2c-0.288 0-0.547 0.067-0.776 0.2s-0.408 0.32-0.536 0.56-0.192 0.515-0.192 0.824v0.088c0 0.32 0.069 0.603 0.208 0.848 0.144 0.24 0.341 0.429 0.592 0.568 0.256 0.133 0.547 0.2 0.872 0.2 0.256 0 0.493-0.045 0.712-0.136 0.224-0.091 0.416-0.229 0.576-0.416l0.32 0.368c-0.187 0.224-0.421 0.395-0.704 0.512-0.277 0.117-0.584 0.176-0.92 0.176zM72.049 29.818v-0.376l2.8-3.544 0.12 0.192h-2.872v-0.472h3.32v0.368l-2.792 3.552-0.144-0.192h2.992v0.472h-3.424zM76.991 29.818v-4.2h0.568v4.2h-0.568zM77.279 24.69c-0.117 0-0.216-0.040-0.296-0.12s-0.12-0.176-0.12-0.288c0-0.112 0.040-0.205 0.12-0.28 0.080-0.080 0.179-0.12 0.296-0.12s0.216 0.037 0.296 0.112c0.080 0.075 0.12 0.168 0.12 0.28 0 0.117-0.040 0.216-0.12 0.296-0.075 0.080-0.173 0.12-0.296 0.12zM81.251 29.858c-0.405 0-0.771-0.091-1.096-0.272-0.32-0.187-0.573-0.44-0.76-0.76-0.187-0.325-0.28-0.696-0.28-1.112 0-0.421 0.093-0.792 0.28-1.112s0.44-0.571 0.76-0.752c0.32-0.181 0.685-0.272 1.096-0.272 0.416 0 0.784 0.091 1.104 0.272 0.325 0.181 0.579 0.432 0.76 0.752 0.187 0.32 0.28 0.691 0.28 1.112 0 0.416-0.093 0.787-0.28 1.112-0.181 0.32-0.435 0.573-0.76 0.76-0.325 0.181-0.693 0.272-1.104 0.272zM81.251 29.354c0.304 0 0.573-0.067 0.808-0.2 0.235-0.139 0.419-0.331 0.552-0.576 0.139-0.251 0.208-0.539 0.208-0.864 0-0.331-0.069-0.619-0.208-0.864-0.133-0.245-0.317-0.435-0.552-0.568-0.235-0.139-0.501-0.208-0.8-0.208s-0.565 0.069-0.8 0.208c-0.235 0.133-0.421 0.323-0.56 0.568s-0.208 0.533-0.208 0.864c0 0.325 0.069 0.613 0.208 0.864 0.139 0.245 0.325 0.437 0.56 0.576 0.235 0.133 0.499 0.2 0.792 0.2zM84.955 29.818v-4.2h0.544v1.144l-0.056-0.2c0.117-0.32 0.314-0.563 0.592-0.728 0.277-0.171 0.621-0.256 1.032-0.256v0.552c-0.022 0-0.043 0-0.064 0-0.022-0.005-0.043-0.008-0.064-0.008-0.443 0-0.79 0.136-1.040 0.408-0.251 0.267-0.376 0.648-0.376 1.144v2.144h-0.568zM90.248 29.858c-0.437 0-0.821-0.091-1.152-0.272-0.331-0.187-0.589-0.44-0.776-0.76-0.187-0.325-0.28-0.696-0.28-1.112s0.088-0.784 0.264-1.104c0.181-0.32 0.427-0.571 0.736-0.752 0.315-0.187 0.667-0.28 1.056-0.28 0.395 0 0.744 0.091 1.048 0.272 0.309 0.176 0.552 0.427 0.728 0.752 0.176 0.32 0.264 0.691 0.264 1.112 0 0.027-0.003 0.056-0.008 0.088 0 0.027 0 0.056 0 0.088h-3.656v-0.424h3.352l-0.224 0.168c0-0.304-0.067-0.573-0.2-0.808-0.128-0.24-0.304-0.427-0.528-0.56s-0.483-0.2-0.776-0.2c-0.288 0-0.547 0.067-0.776 0.2s-0.408 0.32-0.536 0.56c-0.128 0.24-0.192 0.515-0.192 0.824v0.088c0 0.32 0.069 0.603 0.208 0.848 0.144 0.24 0.341 0.429 0.592 0.568 0.256 0.133 0.547 0.2 0.872 0.2 0.256 0 0.493-0.045 0.712-0.136 0.224-0.091 0.416-0.229 0.576-0.416l0.32 0.368c-0.187 0.224-0.421 0.395-0.704 0.512-0.277 0.117-0.584 0.176-0.92 0.176zM98.94 25.578c0.341 0 0.637 0.067 0.888 0.2 0.256 0.128 0.453 0.325 0.592 0.592 0.144 0.267 0.216 0.603 0.216 1.008v2.44h-0.568v-2.384c0-0.443-0.107-0.776-0.32-1-0.208-0.229-0.504-0.344-0.888-0.344-0.288 0-0.539 0.061-0.752 0.184-0.208 0.117-0.371 0.291-0.488 0.52-0.112 0.224-0.168 0.496-0.168 0.816v2.208h-0.568v-2.384c0-0.443-0.107-0.776-0.32-1-0.214-0.229-0.512-0.344-0.896-0.344-0.283 0-0.531 0.061-0.744 0.184-0.214 0.117-0.379 0.291-0.496 0.52-0.112 0.224-0.168 0.496-0.168 0.816v2.208h-0.568v-4.2h0.544v1.136l-0.088-0.2c0.128-0.304 0.333-0.541 0.616-0.712 0.288-0.176 0.626-0.264 1.016-0.264 0.41 0 0.76 0.104 1.048 0.312 0.288 0.203 0.474 0.509 0.56 0.92l-0.224-0.088c0.122-0.341 0.338-0.616 0.648-0.824 0.314-0.213 0.69-0.32 1.128-0.32zM105.191 29.818v-5.6h2.28c0.597 0 1.12 0.12 1.568 0.36 0.453 0.235 0.805 0.563 1.056 0.984s0.376 0.907 0.376 1.456-0.126 1.035-0.376 1.456c-0.251 0.421-0.603 0.752-1.056 0.992-0.448 0.235-0.971 0.352-1.568 0.352h-2.28zM105.783 29.306h1.656c0.496 0 0.925-0.096 1.288-0.288 0.368-0.197 0.653-0.467 0.856-0.808 0.202-0.347 0.304-0.744 0.304-1.192 0-0.453-0.102-0.851-0.304-1.192s-0.488-0.608-0.856-0.8c-0.363-0.197-0.792-0.296-1.288-0.296h-1.656v4.576zM113.864 29.858c-0.438 0-0.822-0.091-1.152-0.272-0.331-0.187-0.59-0.44-0.776-0.76-0.187-0.325-0.28-0.696-0.28-1.112s0.088-0.784 0.264-1.104c0.181-0.32 0.426-0.571 0.736-0.752 0.314-0.187 0.666-0.28 1.056-0.28 0.394 0 0.744 0.091 1.048 0.272 0.309 0.176 0.552 0.427 0.728 0.752 0.176 0.32 0.264 0.691 0.264 1.112 0 0.027-0.003 0.056-0.008 0.088 0 0.027 0 0.056 0 0.088h-3.656v-0.424h3.352l-0.224 0.168c0-0.304-0.067-0.573-0.2-0.808-0.128-0.24-0.304-0.427-0.528-0.56s-0.483-0.2-0.776-0.2c-0.288 0-0.547 0.067-0.776 0.2s-0.408 0.32-0.536 0.56-0.192 0.515-0.192 0.824v0.088c0 0.32 0.069 0.603 0.208 0.848 0.144 0.24 0.341 0.429 0.592 0.568 0.256 0.133 0.546 0.2 0.872 0.2 0.256 0 0.493-0.045 0.712-0.136 0.224-0.091 0.416-0.229 0.576-0.416l0.32 0.368c-0.187 0.224-0.422 0.395-0.704 0.512-0.278 0.117-0.584 0.176-0.92 0.176zM116.684 31.41c-0.17 0-0.333-0.024-0.488-0.072-0.16-0.043-0.293-0.109-0.4-0.2l0.2-0.432c0.171 0.144 0.39 0.216 0.656 0.216 0.224 0 0.395-0.067 0.512-0.2 0.123-0.133 0.184-0.331 0.184-0.592v-4.512h0.568v4.512c0 0.389-0.106 0.699-0.32 0.928-0.208 0.235-0.512 0.352-0.912 0.352zM117.636 24.69c-0.117 0-0.216-0.040-0.296-0.12s-0.12-0.176-0.12-0.288c0-0.112 0.040-0.205 0.12-0.28 0.080-0.080 0.179-0.12 0.296-0.12s0.216 0.037 0.296 0.112 0.12 0.168 0.12 0.28c0 0.117-0.040 0.216-0.12 0.296-0.074 0.080-0.173 0.12-0.296 0.12zM122.047 25.578c0.341 0 0.64 0.067 0.896 0.2 0.261 0.128 0.464 0.325 0.608 0.592 0.149 0.267 0.224 0.603 0.224 1.008v2.44h-0.568v-2.384c0-0.443-0.112-0.776-0.336-1-0.219-0.229-0.528-0.344-0.928-0.344-0.299 0-0.56 0.061-0.784 0.184-0.219 0.117-0.39 0.291-0.512 0.52-0.118 0.224-0.176 0.496-0.176 0.816v2.208h-0.568v-4.2h0.544v1.152l-0.088-0.216c0.133-0.304 0.346-0.541 0.64-0.712 0.293-0.176 0.642-0.264 1.048-0.264zM127.421 29.858c-0.405 0-0.77-0.091-1.096-0.272-0.32-0.187-0.573-0.44-0.76-0.76-0.186-0.325-0.28-0.696-0.28-1.112 0-0.421 0.094-0.792 0.28-1.112s0.44-0.571 0.76-0.752 0.686-0.272 1.096-0.272c0.416 0 0.784 0.091 1.104 0.272 0.326 0.181 0.579 0.432 0.76 0.752 0.187 0.32 0.28 0.691 0.28 1.112 0 0.416-0.093 0.787-0.28 1.112-0.181 0.32-0.434 0.573-0.76 0.76-0.325 0.181-0.693 0.272-1.104 0.272zM127.421 29.354c0.304 0 0.574-0.067 0.808-0.2 0.235-0.139 0.419-0.331 0.552-0.576 0.139-0.251 0.208-0.539 0.208-0.864 0-0.331-0.069-0.619-0.208-0.864-0.133-0.245-0.317-0.435-0.552-0.568-0.234-0.139-0.501-0.208-0.8-0.208s-0.565 0.069-0.8 0.208c-0.234 0.133-0.421 0.323-0.56 0.568s-0.208 0.533-0.208 0.864c0 0.325 0.070 0.613 0.208 0.864 0.139 0.245 0.326 0.437 0.56 0.576 0.235 0.133 0.499 0.2 0.792 0.2zM131.864 29.818l-1.584-4.2h0.544l1.44 3.896h-0.248l1.48-3.896h0.488l1.464 3.896h-0.248l1.464-3.896h0.52l-1.592 4.2h-0.536l-1.408-3.664h0.168l-1.416 3.664h-0.536zM140.034 29.858c-0.406 0-0.771-0.091-1.096-0.272-0.32-0.187-0.574-0.44-0.76-0.76-0.187-0.325-0.28-0.696-0.28-1.112 0-0.421 0.093-0.792 0.28-1.112s0.44-0.571 0.76-0.752 0.685-0.272 1.096-0.272c0.416 0 0.784 0.091 1.104 0.272 0.325 0.181 0.578 0.432 0.76 0.752 0.186 0.32 0.28 0.691 0.28 1.112 0 0.416-0.094 0.787-0.28 1.112-0.182 0.32-0.435 0.573-0.76 0.76-0.326 0.181-0.694 0.272-1.104 0.272zM140.034 29.354c0.304 0 0.573-0.067 0.808-0.2 0.234-0.139 0.418-0.331 0.552-0.576 0.138-0.251 0.208-0.539 0.208-0.864 0-0.331-0.070-0.619-0.208-0.864-0.134-0.245-0.318-0.435-0.552-0.568-0.235-0.139-0.502-0.208-0.8-0.208s-0.566 0.069-0.8 0.208c-0.235 0.133-0.422 0.323-0.56 0.568s-0.208 0.533-0.208 0.864c0 0.325 0.069 0.613 0.208 0.864 0.138 0.245 0.325 0.437 0.56 0.576 0.234 0.133 0.498 0.2 0.792 0.2z"></path>
<path fill="#333" style="fill: var(--color2, #333)" d="M1.161 20.364v-7.127h2.902c0.76 0 1.425 0.153 1.996 0.458 0.577 0.299 1.025 0.716 1.344 1.252s0.479 1.154 0.479 1.853c0 0.699-0.16 1.317-0.479 1.853s-0.767 0.957-1.344 1.263c-0.57 0.299-1.235 0.448-1.996 0.448h-2.902zM1.914 19.712h2.108c0.631 0 1.178-0.122 1.639-0.367 0.468-0.251 0.832-0.594 1.089-1.028 0.258-0.441 0.387-0.947 0.387-1.517 0-0.577-0.129-1.083-0.387-1.517s-0.621-0.774-1.089-1.018c-0.462-0.251-1.008-0.377-1.639-0.377h-2.108v5.824zM13.635 20.415c-0.516 0-0.981-0.115-1.395-0.346-0.407-0.238-0.73-0.56-0.967-0.967-0.238-0.414-0.356-0.886-0.356-1.415 0-0.536 0.119-1.008 0.356-1.415s0.56-0.726 0.967-0.957c0.407-0.231 0.872-0.346 1.395-0.346 0.529 0 0.998 0.115 1.405 0.346 0.414 0.231 0.736 0.55 0.967 0.957 0.238 0.407 0.356 0.879 0.356 1.415 0 0.529-0.119 1.001-0.356 1.415-0.231 0.407-0.553 0.73-0.967 0.967-0.414 0.231-0.882 0.346-1.405 0.346zM13.635 19.773c0.387 0 0.73-0.085 1.028-0.255 0.299-0.177 0.533-0.421 0.703-0.733 0.177-0.319 0.265-0.686 0.265-1.1 0-0.421-0.088-0.787-0.265-1.1-0.17-0.312-0.404-0.553-0.703-0.723-0.299-0.177-0.638-0.265-1.018-0.265s-0.72 0.088-1.018 0.265c-0.299 0.17-0.536 0.411-0.713 0.723s-0.265 0.679-0.265 1.1c0 0.414 0.088 0.781 0.265 1.1 0.177 0.312 0.414 0.557 0.713 0.733 0.299 0.17 0.635 0.255 1.008 0.255zM26.555 14.967c0.434 0 0.811 0.085 1.13 0.255 0.326 0.163 0.577 0.414 0.753 0.753 0.183 0.339 0.275 0.767 0.275 1.283v3.105h-0.723v-3.034c0-0.563-0.136-0.988-0.407-1.273-0.265-0.292-0.641-0.438-1.13-0.438-0.367 0-0.686 0.078-0.957 0.234-0.265 0.149-0.472 0.37-0.621 0.662-0.143 0.285-0.214 0.631-0.214 1.039v2.81h-0.723v-3.034c0-0.563-0.136-0.988-0.407-1.273-0.272-0.292-0.652-0.438-1.14-0.438-0.36 0-0.675 0.078-0.947 0.234-0.272 0.149-0.482 0.37-0.631 0.662-0.143 0.285-0.214 0.631-0.214 1.039v2.81h-0.723v-5.345h0.692v1.446l-0.112-0.255c0.163-0.387 0.424-0.689 0.784-0.906 0.367-0.224 0.798-0.336 1.293-0.336 0.523 0 0.967 0.132 1.334 0.397 0.367 0.258 0.604 0.648 0.713 1.171l-0.285-0.112c0.156-0.434 0.431-0.784 0.825-1.049 0.4-0.271 0.879-0.407 1.436-0.407zM33.281 18.979l0.020-0.927 3.329-3.034h0.886l-2.352 2.25-0.407 0.346-1.476 1.364zM32.711 20.364v-7.555h0.723v7.555h-0.723zM36.855 20.364l-2.23-2.78 0.468-0.56 2.647 3.34h-0.886zM40.862 20.364v-5.345h0.723v5.345h-0.723zM41.229 13.837c-0.149 0-0.275-0.051-0.377-0.153s-0.153-0.224-0.153-0.367c0-0.143 0.051-0.261 0.153-0.356 0.102-0.102 0.227-0.153 0.377-0.153s0.275 0.047 0.377 0.143c0.102 0.095 0.153 0.214 0.153 0.356 0 0.149-0.051 0.275-0.153 0.377-0.095 0.102-0.221 0.153-0.377 0.153zM53.063 14.967c0.434 0 0.815 0.085 1.14 0.255 0.333 0.163 0.591 0.414 0.774 0.753 0.19 0.339 0.285 0.767 0.285 1.283v3.105h-0.723v-3.034c0-0.563-0.143-0.988-0.428-1.273-0.278-0.292-0.672-0.438-1.181-0.438-0.38 0-0.713 0.078-0.998 0.234-0.278 0.149-0.495 0.37-0.652 0.662-0.149 0.285-0.224 0.631-0.224 1.039v2.81h-0.723v-5.345h0.692v1.466l-0.112-0.275c0.17-0.387 0.441-0.689 0.815-0.906 0.373-0.224 0.818-0.336 1.334-0.336zM62.601 20.364v-1.181l-0.031-0.193v-1.975c0-0.455-0.129-0.804-0.387-1.049-0.251-0.244-0.628-0.367-1.13-0.367-0.346 0-0.675 0.058-0.988 0.173s-0.577 0.268-0.794 0.458l-0.326-0.54c0.272-0.231 0.597-0.407 0.977-0.529 0.38-0.129 0.781-0.193 1.201-0.193 0.692 0 1.225 0.173 1.599 0.519 0.38 0.339 0.57 0.859 0.57 1.558v3.319h-0.692zM60.758 20.415c-0.401 0-0.75-0.064-1.049-0.193-0.292-0.136-0.516-0.319-0.672-0.55-0.156-0.238-0.234-0.509-0.234-0.815 0-0.278 0.064-0.529 0.193-0.753 0.136-0.231 0.353-0.414 0.652-0.55 0.305-0.143 0.713-0.214 1.222-0.214h1.843v0.54h-1.823c-0.516 0-0.876 0.092-1.079 0.275-0.197 0.183-0.295 0.411-0.295 0.682 0 0.305 0.119 0.55 0.356 0.733s0.57 0.275 0.998 0.275c0.407 0 0.757-0.092 1.049-0.275 0.299-0.19 0.516-0.462 0.652-0.815l0.163 0.499c-0.136 0.353-0.373 0.635-0.713 0.845-0.333 0.21-0.753 0.316-1.263 0.316zM72.147 20.364v-7.127h0.621l3.258 5.559h-0.326l3.228-5.559h0.621v7.127h-0.723v-5.997h0.173l-2.973 5.091h-0.356l-2.993-5.091h0.193v5.997h-0.723zM87.105 20.364v-1.181l-0.031-0.193v-1.975c0-0.455-0.129-0.804-0.387-1.049-0.251-0.244-0.628-0.367-1.13-0.367-0.346 0-0.675 0.058-0.988 0.173s-0.577 0.268-0.794 0.458l-0.326-0.54c0.272-0.231 0.598-0.407 0.977-0.529 0.38-0.129 0.781-0.193 1.201-0.193 0.692 0 1.225 0.173 1.599 0.519 0.38 0.339 0.57 0.859 0.57 1.558v3.319h-0.692zM85.262 20.415c-0.4 0-0.75-0.064-1.049-0.193-0.292-0.136-0.516-0.319-0.672-0.55-0.156-0.238-0.234-0.509-0.234-0.815 0-0.278 0.065-0.529 0.193-0.753 0.136-0.231 0.353-0.414 0.652-0.55 0.305-0.143 0.713-0.214 1.222-0.214h1.843v0.54h-1.823c-0.516 0-0.876 0.092-1.079 0.275-0.196 0.183-0.295 0.411-0.295 0.682 0 0.305 0.119 0.55 0.356 0.733s0.57 0.275 0.998 0.275c0.407 0 0.757-0.092 1.049-0.275 0.299-0.19 0.516-0.462 0.652-0.815l0.163 0.499c-0.135 0.353-0.373 0.635-0.713 0.845-0.332 0.21-0.753 0.316-1.263 0.316zM91.217 20.364v-0.479l3.564-4.511 0.153 0.244h-3.655v-0.601h4.225v0.468l-3.553 4.521-0.183-0.244h3.808v0.601h-4.358zM101.244 20.415c-0.455 0-0.852-0.085-1.191-0.255s-0.604-0.424-0.794-0.764c-0.183-0.339-0.275-0.764-0.275-1.273v-3.105h0.723v3.024c0 0.57 0.139 1.001 0.417 1.293 0.285 0.285 0.682 0.428 1.191 0.428 0.373 0 0.695-0.075 0.967-0.224 0.278-0.156 0.489-0.38 0.631-0.672 0.149-0.292 0.224-0.641 0.224-1.049v-2.8h0.723v5.345h-0.692v-1.466l0.112 0.265c-0.17 0.394-0.435 0.703-0.794 0.927-0.353 0.217-0.767 0.326-1.242 0.326zM107.911 20.364v-5.345h0.692v1.456l-0.071-0.255c0.149-0.407 0.4-0.716 0.753-0.927 0.353-0.217 0.791-0.326 1.313-0.326v0.703c-0.028 0-0.055 0-0.081 0-0.028-0.007-0.055-0.010-0.081-0.010-0.564 0-1.005 0.173-1.324 0.519-0.319 0.339-0.479 0.825-0.479 1.456v2.729h-0.723zM116.907 20.364v-1.181l-0.031-0.193v-1.975c0-0.455-0.129-0.804-0.387-1.049-0.252-0.244-0.628-0.367-1.13-0.367-0.346 0-0.676 0.058-0.988 0.173s-0.577 0.268-0.794 0.458l-0.326-0.54c0.271-0.231 0.597-0.407 0.977-0.529 0.38-0.129 0.78-0.193 1.201-0.193 0.692 0 1.225 0.173 1.599 0.519 0.38 0.339 0.57 0.859 0.57 1.558v3.319h-0.692zM115.064 20.415c-0.401 0-0.751-0.064-1.049-0.193-0.292-0.136-0.516-0.319-0.672-0.55-0.156-0.238-0.234-0.509-0.234-0.815 0-0.278 0.064-0.529 0.193-0.753 0.135-0.231 0.353-0.414 0.652-0.55 0.305-0.143 0.713-0.214 1.222-0.214h1.843v0.54h-1.823c-0.516 0-0.876 0.092-1.079 0.275-0.197 0.183-0.295 0.411-0.295 0.682 0 0.305 0.119 0.55 0.356 0.733s0.57 0.275 0.998 0.275c0.407 0 0.756-0.092 1.049-0.275 0.298-0.19 0.516-0.462 0.652-0.815l0.163 0.499c-0.136 0.353-0.374 0.635-0.713 0.845-0.333 0.21-0.753 0.316-1.263 0.316zM123.819 20.415c-0.529 0-1.005-0.115-1.425-0.346-0.415-0.238-0.74-0.56-0.977-0.967-0.238-0.414-0.356-0.886-0.356-1.415 0-0.536 0.119-1.008 0.356-1.415s0.563-0.726 0.977-0.957c0.42-0.231 0.896-0.346 1.425-0.346 0.455 0 0.865 0.088 1.232 0.265s0.655 0.441 0.865 0.794l-0.54 0.367c-0.183-0.271-0.411-0.472-0.682-0.601s-0.567-0.193-0.886-0.193c-0.38 0-0.723 0.088-1.028 0.265-0.305 0.17-0.547 0.411-0.723 0.723s-0.265 0.679-0.265 1.1 0.088 0.787 0.265 1.1c0.176 0.312 0.417 0.557 0.723 0.733 0.305 0.17 0.648 0.255 1.028 0.255 0.319 0 0.614-0.064 0.886-0.193s0.499-0.326 0.682-0.591l0.54 0.367c-0.211 0.346-0.499 0.611-0.865 0.794-0.367 0.177-0.777 0.265-1.232 0.265zM132.022 14.967c0.434 0 0.815 0.085 1.14 0.255 0.332 0.163 0.591 0.414 0.774 0.753 0.19 0.339 0.285 0.767 0.285 1.283v3.105h-0.723v-3.034c0-0.563-0.143-0.988-0.428-1.273-0.279-0.292-0.672-0.438-1.181-0.438-0.38 0-0.713 0.078-0.998 0.234-0.279 0.149-0.496 0.37-0.652 0.662-0.15 0.285-0.224 0.631-0.224 1.039v2.81h-0.723v-7.555h0.723v3.676l-0.143-0.275c0.169-0.387 0.441-0.689 0.815-0.906 0.373-0.224 0.817-0.336 1.334-0.336z"></path>
</symbol>
<symbol id="menu" viewBox="0 0 92 32">
<path fill="#4d4d4d" style="fill: var(--color1, #4d4d4d)" d="M0 30.108h90.667v-8.062h-90.667v8.062zM0 1.891v8.062h90.667v-8.062h-90.667z"></path>
</symbol>
<symbol id="mini-logo" viewBox="0 0 79 32">
<path fill="none" stroke="#4d4d4d" style="stroke: var(--color1, #4d4d4d)" stroke-linejoin="miter" stroke-linecap="butt" stroke-miterlimit="4" stroke-width="2.1333" d="M38.642 15.211l11.42-13.077"></path>
<path fill="none" stroke="#4d4d4d" style="stroke: var(--color1, #4d4d4d)" stroke-linejoin="miter" stroke-linecap="butt" stroke-miterlimit="4" stroke-width="2.1333" d="M49.004 2.863l27.175 27.174"></path>
<path fill="none" stroke="#4d4d4d" style="stroke: var(--color1, #4d4d4d)" stroke-linejoin="miter" stroke-linecap="butt" stroke-miterlimit="4" stroke-width="2.1333" d="M1.341 28.317l24.19-26.848"></path>
<path fill="none" stroke="#4d4d4d" style="stroke: var(--color1, #4d4d4d)" stroke-linejoin="miter" stroke-linecap="butt" stroke-miterlimit="4" stroke-width="2.1333" d="M24.409 2.144l27.174 27.174"></path>
</symbol>
<symbol id="instagram"  width="51" height="50" viewBox="0 0 51 50" fill="none">
<path d="M16.5 3C9.33248 3 3.5 8.83248 3.5 16V34C3.5 41.1675 9.33248 47 16.5 47H34.5C41.6675 47 47.5 41.1675 47.5 34V16C47.5 8.83248 41.6675 3 34.5 3H16.5ZM16.5 5H34.5C40.5865 5 45.5 9.91352 45.5 16V34C45.5 40.0865 40.5865 45 34.5 45H16.5C10.4135 45 5.5 40.0865 5.5 34V16C5.5 9.91352 10.4135 5 16.5 5ZM37.5 11C36.9696 11 36.4609 11.2107 36.0858 11.5858C35.7107 11.9609 35.5 12.4696 35.5 13C35.5 13.5304 35.7107 14.0391 36.0858 14.4142C36.4609 14.7893 36.9696 15 37.5 15C38.0304 15 38.5391 14.7893 38.9142 14.4142C39.2893 14.0391 39.5 13.5304 39.5 13C39.5 12.4696 39.2893 11.9609 38.9142 11.5858C38.5391 11.2107 38.0304 11 37.5 11ZM25.5 14C19.4367 14 14.5 18.9367 14.5 25C14.5 31.0633 19.4367 36 25.5 36C31.5633 36 36.5 31.0633 36.5 25C36.5 18.9367 31.5633 14 25.5 14ZM25.5 16C30.4824 16 34.5 20.0176 34.5 25C34.5 29.9824 30.4824 34 25.5 34C20.5176 34 16.5 29.9824 16.5 25C16.5 20.0176 20.5176 16 25.5 16Z" fill="#555454"/>
</symbol>
<symbol id="fb" width="51" height="50" viewBox="0 0 51 50" fill="none">
<path d="M25.5 3C13.3616 3 3.5 12.8616 3.5 25C3.5 36.0191 11.6275 45.1384 22.2129 46.7285L23.3613 46.9023V29.5664H18.1641V26.0469H23.3613V21.373C23.3613 18.495 24.052 16.5994 25.1953 15.4102C26.3387 14.2209 28.028 13.6211 30.3789 13.6211C32.2587 13.6211 32.99 13.735 33.6855 13.8203V16.7012H31.2383C29.8497 16.7012 28.7104 17.4759 28.1191 18.5078C27.5278 19.5397 27.3438 20.7718 27.3438 22.0273V26.0449H33.4668L32.9219 29.5645H27.3438V46.9297L28.4785 46.7754C39.2143 45.3194 47.5 36.1268 47.5 25C47.5 12.8616 37.6384 3 25.5 3ZM25.5 5C36.5576 5 45.5 13.9424 45.5 25C45.5 34.7298 38.5358 42.7318 29.3438 44.5332V31.5645H34.6367L35.7988 24.0449H29.3438V22.0273C29.3438 20.9899 29.5336 20.0603 29.8535 19.502C30.1735 18.9436 30.4819 18.7012 31.2383 18.7012H35.6855V12.0098L34.8184 11.8926C34.2186 11.8114 32.8492 11.6211 30.3789 11.6211C27.6758 11.6211 25.3556 12.3574 23.7539 14.0234C22.1522 15.6894 21.3613 18.1701 21.3613 21.373V24.0469H16.1641V31.5664H21.3613V44.4707C12.317 42.5548 5.5 34.6244 5.5 25C5.5 13.9424 14.4424 5 25.5 5Z" fill="#555454"/>
</symbol>
<symbol id="close" viewBox="0 0 32 32">
<path d="M31.708 25.708c-0-0-0-0-0-0l-9.708-9.708 9.708-9.708c0-0 0-0 0-0 0.105-0.105 0.18-0.227 0.229-0.357 0.133-0.356 0.057-0.771-0.229-1.057l-4.586-4.586c-0.286-0.286-0.702-0.361-1.057-0.229-0.13 0.048-0.252 0.124-0.357 0.228 0 0-0 0-0 0l-9.708 9.708-9.708-9.708c-0-0-0-0-0-0-0.105-0.104-0.227-0.18-0.357-0.228-0.356-0.133-0.771-0.057-1.057 0.229l-4.586 4.586c-0.286 0.286-0.361 0.702-0.229 1.057 0.049 0.13 0.124 0.252 0.229 0.357 0 0 0 0 0 0l9.708 9.708-9.708 9.708c-0 0-0 0-0 0-0.104 0.105-0.18 0.227-0.229 0.357-0.133 0.355-0.057 0.771 0.229 1.057l4.586 4.586c0.286 0.286 0.702 0.361 1.057 0.229 0.13-0.049 0.252-0.124 0.357-0.229 0-0 0-0 0-0l9.708-9.708 9.708 9.708c0 0 0 0 0 0 0.105 0.105 0.227 0.18 0.357 0.229 0.356 0.133 0.771 0.057 1.057-0.229l4.586-4.586c0.286-0.286 0.362-0.702 0.229-1.057-0.049-0.13-0.124-0.252-0.229-0.357z"></path>
</symbol>
</defs>
</svg>
