<svg width="15" height="22" viewBox="0 0 15 22" fill="none" xmlns="http://www.w3.org/2000/svg">
<path d="M7.5 0C3.35357 0 0 3.443 0 7.7C0 9.614 0.535714 11.407 1.51071 13.024C2.52857 14.718 3.86786 16.17 4.89643 17.864C5.4 18.689 5.76429 19.459 6.15 20.35C6.42857 20.955 6.65357 22 7.5 22C8.34643 22 8.57143 20.955 8.83929 20.35C9.23571 19.459 9.58929 18.689 10.0929 17.864C11.1214 16.181 12.4607 14.729 13.4786 13.024C14.4643 11.407 15 9.614 15 7.7C15 3.443 11.6464 0 7.5 0ZM7.5 10.725C6.02143 10.725 4.82143 9.493 4.82143 7.975C4.82143 6.457 6.02143 5.225 7.5 5.225C8.97857 5.225 10.1786 6.457 10.1786 7.975C10.1786 9.493 8.97857 10.725 7.5 10.725Z" fill="#4D4D4D"/>
</svg>
